<mxfile host="app.diagrams.net" modified="2023-11-02T13:45:04.765Z" agent="Mozilla/5.0 (Windows NT 10.0; Win64; x64) AppleWebKit/537.36 (KHTML, like Gecko) Chrome/118.0.0.0 Safari/537.36" etag="1k_7QW3sB4jSTzaFSYop" version="22.0.8" type="device">
  <diagram id="txKsA-46vfhFB0Tpojm-" name="Page-1">
    <mxGraphModel dx="1400" dy="1859" grid="1" gridSize="10" guides="1" tooltips="1" connect="1" arrows="1" fold="1" page="1" pageScale="1" pageWidth="850" pageHeight="1100" math="0" shadow="0">
      <root>
        <mxCell id="0" />
        <mxCell id="1" parent="0" />
        <mxCell id="nn8hSTY8LS2ksEA_XaxK-1" value="API providers (CoinMarketCap, ExchangeRates)" style="html=1;whiteSpace=wrap;" parent="1" vertex="1">
          <mxGeometry x="760" y="-680" width="120" height="60" as="geometry" />
        </mxCell>
        <mxCell id="nn8hSTY8LS2ksEA_XaxK-2" value="Home Activity" style="rounded=0;whiteSpace=wrap;html=1;" parent="1" vertex="1">
          <mxGeometry x="160" y="-680" width="120" height="60" as="geometry" />
        </mxCell>
        <mxCell id="nn8hSTY8LS2ksEA_XaxK-3" value="" style="endArrow=none;dashed=1;html=1;strokeWidth=2;rounded=0;" parent="1" target="nn8hSTY8LS2ksEA_XaxK-2" edge="1">
          <mxGeometry width="50" height="50" relative="1" as="geometry">
            <mxPoint x="220" y="-320" as="sourcePoint" />
            <mxPoint x="530" y="-450" as="targetPoint" />
          </mxGeometry>
        </mxCell>
        <mxCell id="nn8hSTY8LS2ksEA_XaxK-4" value="" style="endArrow=none;dashed=1;html=1;strokeWidth=2;rounded=0;" parent="1" source="nn8hSTY8LS2ksEA_XaxK-29" target="nn8hSTY8LS2ksEA_XaxK-1" edge="1">
          <mxGeometry width="50" height="50" relative="1" as="geometry">
            <mxPoint x="819" y="-120" as="sourcePoint" />
            <mxPoint x="819.47" y="-610" as="targetPoint" />
          </mxGeometry>
        </mxCell>
        <mxCell id="nn8hSTY8LS2ksEA_XaxK-5" value="" style="endArrow=classic;html=1;rounded=0;entryX=0;entryY=0.25;entryDx=0;entryDy=0;" parent="1" target="nn8hSTY8LS2ksEA_XaxK-56" edge="1">
          <mxGeometry width="50" height="50" relative="1" as="geometry">
            <mxPoint x="40" y="-520" as="sourcePoint" />
            <mxPoint x="220" y="-520" as="targetPoint" />
          </mxGeometry>
        </mxCell>
        <mxCell id="nn8hSTY8LS2ksEA_XaxK-6" value="Login&lt;br&gt;successfully" style="edgeLabel;html=1;align=center;verticalAlign=middle;resizable=0;points=[];" parent="nn8hSTY8LS2ksEA_XaxK-5" vertex="1" connectable="0">
          <mxGeometry x="0.0028" relative="1" as="geometry">
            <mxPoint as="offset" />
          </mxGeometry>
        </mxCell>
        <mxCell id="nn8hSTY8LS2ksEA_XaxK-7" value="&lt;font style=&quot;font-size: 10px;&quot;&gt;API utility objects&lt;br&gt;(CryptoAPIUtility,&amp;nbsp;&lt;br&gt;ExchangeRatesAPIUtility)&amp;nbsp;&lt;/font&gt;" style="rounded=0;whiteSpace=wrap;html=1;" parent="1" vertex="1">
          <mxGeometry x="360" y="-680" width="120" height="60" as="geometry" />
        </mxCell>
        <mxCell id="nn8hSTY8LS2ksEA_XaxK-8" value="" style="endArrow=none;dashed=1;html=1;strokeWidth=2;rounded=0;" parent="1" target="nn8hSTY8LS2ksEA_XaxK-7" edge="1">
          <mxGeometry width="50" height="50" relative="1" as="geometry">
            <mxPoint x="420" y="-320" as="sourcePoint" />
            <mxPoint x="730" y="-450" as="targetPoint" />
          </mxGeometry>
        </mxCell>
        <mxCell id="nn8hSTY8LS2ksEA_XaxK-9" value="" style="endArrow=classic;html=1;rounded=0;" parent="1" edge="1">
          <mxGeometry width="50" height="50" relative="1" as="geometry">
            <mxPoint x="220" y="-520" as="sourcePoint" />
            <mxPoint x="420" y="-520" as="targetPoint" />
          </mxGeometry>
        </mxCell>
        <mxCell id="nn8hSTY8LS2ksEA_XaxK-10" value="get instance" style="edgeLabel;html=1;align=center;verticalAlign=middle;resizable=0;points=[];" parent="nn8hSTY8LS2ksEA_XaxK-9" vertex="1" connectable="0">
          <mxGeometry x="0.0028" relative="1" as="geometry">
            <mxPoint as="offset" />
          </mxGeometry>
        </mxCell>
        <mxCell id="nn8hSTY8LS2ksEA_XaxK-11" value="&lt;span style=&quot;font-size: 10px;&quot;&gt;API interface&amp;nbsp;&lt;br&gt;&lt;/span&gt;(ICryptoAPI,&amp;nbsp;&lt;br&gt;IExchangeRatesAPI)" style="rounded=0;whiteSpace=wrap;html=1;" parent="1" vertex="1">
          <mxGeometry x="560" y="-680" width="120" height="60" as="geometry" />
        </mxCell>
        <mxCell id="nn8hSTY8LS2ksEA_XaxK-12" value="" style="endArrow=none;dashed=1;html=1;strokeWidth=2;rounded=0;" parent="1" source="nn8hSTY8LS2ksEA_XaxK-15" target="nn8hSTY8LS2ksEA_XaxK-11" edge="1">
          <mxGeometry width="50" height="50" relative="1" as="geometry">
            <mxPoint x="620" y="-120" as="sourcePoint" />
            <mxPoint x="930" y="-450" as="targetPoint" />
          </mxGeometry>
        </mxCell>
        <mxCell id="nn8hSTY8LS2ksEA_XaxK-13" value="" style="endArrow=classic;html=1;rounded=0;" parent="1" edge="1">
          <mxGeometry width="50" height="50" relative="1" as="geometry">
            <mxPoint x="420" y="-520" as="sourcePoint" />
            <mxPoint x="610" y="-520" as="targetPoint" />
          </mxGeometry>
        </mxCell>
        <mxCell id="nn8hSTY8LS2ksEA_XaxK-14" value="get data response&lt;br&gt;(retrofit2.http.GET)" style="edgeLabel;html=1;align=center;verticalAlign=middle;resizable=0;points=[];" parent="nn8hSTY8LS2ksEA_XaxK-13" vertex="1" connectable="0">
          <mxGeometry x="0.0028" relative="1" as="geometry">
            <mxPoint as="offset" />
          </mxGeometry>
        </mxCell>
        <mxCell id="nn8hSTY8LS2ksEA_XaxK-16" value="" style="endArrow=none;dashed=1;html=1;strokeWidth=2;rounded=0;" parent="1" target="nn8hSTY8LS2ksEA_XaxK-15" edge="1">
          <mxGeometry width="50" height="50" relative="1" as="geometry">
            <mxPoint x="620" y="-320" as="sourcePoint" />
            <mxPoint x="620" y="-620" as="targetPoint" />
          </mxGeometry>
        </mxCell>
        <mxCell id="nn8hSTY8LS2ksEA_XaxK-15" value="" style="rounded=0;whiteSpace=wrap;html=1;" parent="1" vertex="1">
          <mxGeometry x="610" y="-530" width="20" height="46" as="geometry" />
        </mxCell>
        <mxCell id="nn8hSTY8LS2ksEA_XaxK-17" value="" style="rounded=0;whiteSpace=wrap;html=1;" parent="1" vertex="1">
          <mxGeometry x="610" y="-410" width="20" height="30" as="geometry" />
        </mxCell>
        <mxCell id="nn8hSTY8LS2ksEA_XaxK-22" value="" style="endArrow=open;html=1;rounded=0;exitX=1;exitY=1;exitDx=0;exitDy=0;entryX=1;entryY=0.5;entryDx=0;entryDy=0;dashed=1;endFill=0;" parent="1" source="nn8hSTY8LS2ksEA_XaxK-15" target="nn8hSTY8LS2ksEA_XaxK-17" edge="1">
          <mxGeometry width="50" height="50" relative="1" as="geometry">
            <mxPoint x="530" y="-460" as="sourcePoint" />
            <mxPoint x="580" y="-510" as="targetPoint" />
            <Array as="points">
              <mxPoint x="660" y="-420" />
            </Array>
          </mxGeometry>
        </mxCell>
        <mxCell id="nn8hSTY8LS2ksEA_XaxK-23" value="error: e" style="edgeLabel;html=1;align=center;verticalAlign=middle;resizable=0;points=[];" parent="nn8hSTY8LS2ksEA_XaxK-22" vertex="1" connectable="0">
          <mxGeometry x="-0.1359" y="-1" relative="1" as="geometry">
            <mxPoint as="offset" />
          </mxGeometry>
        </mxCell>
        <mxCell id="nn8hSTY8LS2ksEA_XaxK-24" value="" style="endArrow=open;html=1;rounded=0;exitX=0;exitY=0.5;exitDx=0;exitDy=0;endFill=0;dashed=1;" parent="1" source="nn8hSTY8LS2ksEA_XaxK-17" edge="1">
          <mxGeometry width="50" height="50" relative="1" as="geometry">
            <mxPoint x="540" y="-430" as="sourcePoint" />
            <mxPoint x="220" y="-395" as="targetPoint" />
          </mxGeometry>
        </mxCell>
        <mxCell id="nn8hSTY8LS2ksEA_XaxK-25" value="Log: e" style="edgeLabel;html=1;align=center;verticalAlign=middle;resizable=0;points=[];" parent="nn8hSTY8LS2ksEA_XaxK-24" vertex="1" connectable="0">
          <mxGeometry x="0.4229" y="2" relative="1" as="geometry">
            <mxPoint as="offset" />
          </mxGeometry>
        </mxCell>
        <mxCell id="nn8hSTY8LS2ksEA_XaxK-26" value="" style="endArrow=classic;html=1;rounded=0;" parent="1" edge="1">
          <mxGeometry width="50" height="50" relative="1" as="geometry">
            <mxPoint x="630" y="-520" as="sourcePoint" />
            <mxPoint x="810" y="-520" as="targetPoint" />
          </mxGeometry>
        </mxCell>
        <mxCell id="nn8hSTY8LS2ksEA_XaxK-27" value="connect" style="edgeLabel;html=1;align=center;verticalAlign=middle;resizable=0;points=[];" parent="nn8hSTY8LS2ksEA_XaxK-26" vertex="1" connectable="0">
          <mxGeometry x="0.0028" relative="1" as="geometry">
            <mxPoint as="offset" />
          </mxGeometry>
        </mxCell>
        <mxCell id="nn8hSTY8LS2ksEA_XaxK-28" value="" style="rounded=0;whiteSpace=wrap;html=1;" parent="1" vertex="1">
          <mxGeometry x="810" y="-530" width="20" height="46" as="geometry" />
        </mxCell>
        <mxCell id="nn8hSTY8LS2ksEA_XaxK-30" value="" style="endArrow=open;html=1;rounded=0;exitX=1;exitY=0.75;exitDx=0;exitDy=0;entryX=1;entryY=0.5;entryDx=0;entryDy=0;dashed=1;endFill=0;" parent="1" source="nn8hSTY8LS2ksEA_XaxK-28" target="nn8hSTY8LS2ksEA_XaxK-29" edge="1">
          <mxGeometry width="50" height="50" relative="1" as="geometry">
            <mxPoint x="730" y="-460" as="sourcePoint" />
            <mxPoint x="780" y="-510" as="targetPoint" />
            <Array as="points">
              <mxPoint x="870" y="-440" />
            </Array>
          </mxGeometry>
        </mxCell>
        <mxCell id="nn8hSTY8LS2ksEA_XaxK-31" value="error: e" style="edgeLabel;html=1;align=center;verticalAlign=middle;resizable=0;points=[];" parent="nn8hSTY8LS2ksEA_XaxK-30" vertex="1" connectable="0">
          <mxGeometry x="-0.1359" y="-1" relative="1" as="geometry">
            <mxPoint y="18" as="offset" />
          </mxGeometry>
        </mxCell>
        <mxCell id="nn8hSTY8LS2ksEA_XaxK-33" value="" style="endArrow=none;dashed=1;html=1;strokeWidth=2;rounded=0;" parent="1" target="nn8hSTY8LS2ksEA_XaxK-29" edge="1">
          <mxGeometry width="50" height="50" relative="1" as="geometry">
            <mxPoint x="820" y="-320" as="sourcePoint" />
            <mxPoint x="820" y="-620" as="targetPoint" />
          </mxGeometry>
        </mxCell>
        <mxCell id="nn8hSTY8LS2ksEA_XaxK-29" value="" style="rounded=0;whiteSpace=wrap;html=1;" parent="1" vertex="1">
          <mxGeometry x="810" y="-380" width="20" height="30" as="geometry" />
        </mxCell>
        <mxCell id="nn8hSTY8LS2ksEA_XaxK-34" value="" style="endArrow=open;html=1;rounded=0;exitX=0;exitY=0.5;exitDx=0;exitDy=0;endFill=0;dashed=1;" parent="1" source="nn8hSTY8LS2ksEA_XaxK-29" edge="1">
          <mxGeometry width="50" height="50" relative="1" as="geometry">
            <mxPoint x="720" y="-365.53" as="sourcePoint" />
            <mxPoint x="220" y="-366" as="targetPoint" />
          </mxGeometry>
        </mxCell>
        <mxCell id="nn8hSTY8LS2ksEA_XaxK-35" value="Log: e" style="edgeLabel;html=1;align=center;verticalAlign=middle;resizable=0;points=[];" parent="nn8hSTY8LS2ksEA_XaxK-34" vertex="1" connectable="0">
          <mxGeometry x="0.4229" y="2" relative="1" as="geometry">
            <mxPoint x="-60" y="-1" as="offset" />
          </mxGeometry>
        </mxCell>
        <mxCell id="nn8hSTY8LS2ksEA_XaxK-41" value="&amp;lt;&amp;lt;Object&amp;gt;&amp;gt;&lt;br&gt;Constants" style="rounded=0;whiteSpace=wrap;html=1;" parent="1" vertex="1">
          <mxGeometry x="960" y="-680" width="120" height="60" as="geometry" />
        </mxCell>
        <mxCell id="nn8hSTY8LS2ksEA_XaxK-42" value="" style="endArrow=none;dashed=1;html=1;strokeWidth=2;rounded=0;" parent="1" source="nn8hSTY8LS2ksEA_XaxK-50" target="nn8hSTY8LS2ksEA_XaxK-41" edge="1">
          <mxGeometry width="50" height="50" relative="1" as="geometry">
            <mxPoint x="1020" y="-120" as="sourcePoint" />
            <mxPoint x="1330" y="-450" as="targetPoint" />
          </mxGeometry>
        </mxCell>
        <mxCell id="nn8hSTY8LS2ksEA_XaxK-43" value="" style="endArrow=open;html=1;rounded=0;exitX=0;exitY=0.75;exitDx=0;exitDy=0;endFill=0;dashed=1;entryX=1;entryY=0.75;entryDx=0;entryDy=0;" parent="1" source="nn8hSTY8LS2ksEA_XaxK-28" target="nn8hSTY8LS2ksEA_XaxK-15" edge="1">
          <mxGeometry width="50" height="50" relative="1" as="geometry">
            <mxPoint x="770" y="-439" as="sourcePoint" />
            <mxPoint x="180" y="-440" as="targetPoint" />
          </mxGeometry>
        </mxCell>
        <mxCell id="nn8hSTY8LS2ksEA_XaxK-44" value="successfully" style="edgeLabel;html=1;align=center;verticalAlign=middle;resizable=0;points=[];" parent="nn8hSTY8LS2ksEA_XaxK-43" vertex="1" connectable="0">
          <mxGeometry x="0.4229" y="2" relative="1" as="geometry">
            <mxPoint x="38" y="-2" as="offset" />
          </mxGeometry>
        </mxCell>
        <mxCell id="nn8hSTY8LS2ksEA_XaxK-46" value="" style="endArrow=classic;html=1;rounded=0;entryX=0;entryY=0.25;entryDx=0;entryDy=0;exitX=1.067;exitY=0.882;exitDx=0;exitDy=0;exitPerimeter=0;" parent="1" source="nn8hSTY8LS2ksEA_XaxK-56" target="nn8hSTY8LS2ksEA_XaxK-50" edge="1">
          <mxGeometry width="50" height="50" relative="1" as="geometry">
            <mxPoint x="630" y="-478" as="sourcePoint" />
            <mxPoint x="1020" y="-478" as="targetPoint" />
          </mxGeometry>
        </mxCell>
        <mxCell id="nn8hSTY8LS2ksEA_XaxK-47" value="process and save" style="edgeLabel;html=1;align=center;verticalAlign=middle;resizable=0;points=[];" parent="nn8hSTY8LS2ksEA_XaxK-46" vertex="1" connectable="0">
          <mxGeometry x="0.0028" relative="1" as="geometry">
            <mxPoint x="298" y="-6" as="offset" />
          </mxGeometry>
        </mxCell>
        <mxCell id="nn8hSTY8LS2ksEA_XaxK-49" value="&lt;font size=&quot;1&quot; style=&quot;&quot;&gt;&lt;b style=&quot;font-size: 18px;&quot;&gt;Get data from API(s)&lt;/b&gt;&lt;/font&gt;" style="shape=umlFrame;whiteSpace=wrap;html=1;pointerEvents=0;width=240;height=30;" parent="1" vertex="1">
          <mxGeometry x="20" y="-740" width="1210" height="440" as="geometry" />
        </mxCell>
        <mxCell id="nn8hSTY8LS2ksEA_XaxK-51" value="" style="endArrow=none;dashed=1;html=1;strokeWidth=2;rounded=0;" parent="1" target="nn8hSTY8LS2ksEA_XaxK-50" edge="1">
          <mxGeometry width="50" height="50" relative="1" as="geometry">
            <mxPoint x="1020" y="-320" as="sourcePoint" />
            <mxPoint x="1020" y="-620" as="targetPoint" />
          </mxGeometry>
        </mxCell>
        <mxCell id="nn8hSTY8LS2ksEA_XaxK-50" value="" style="rounded=0;whiteSpace=wrap;html=1;" parent="1" vertex="1">
          <mxGeometry x="1010" y="-490" width="20" height="46" as="geometry" />
        </mxCell>
        <mxCell id="nn8hSTY8LS2ksEA_XaxK-52" value="Constants.cryptoAssets" style="text;html=1;strokeColor=none;fillColor=none;align=center;verticalAlign=middle;whiteSpace=wrap;rounded=0;" parent="1" vertex="1">
          <mxGeometry x="1070" y="-490" width="60" height="30" as="geometry" />
        </mxCell>
        <mxCell id="nn8hSTY8LS2ksEA_XaxK-53" value="Constants.exchangeRatesInUSD" style="text;html=1;strokeColor=none;fillColor=none;align=center;verticalAlign=middle;whiteSpace=wrap;rounded=0;" parent="1" vertex="1">
          <mxGeometry x="1094" y="-470" width="60" height="30" as="geometry" />
        </mxCell>
        <mxCell id="nn8hSTY8LS2ksEA_XaxK-54" value="" style="endArrow=open;html=1;rounded=0;exitX=0;exitY=0.75;exitDx=0;exitDy=0;endFill=0;dashed=1;entryX=0.975;entryY=0.606;entryDx=0;entryDy=0;entryPerimeter=0;" parent="1" source="nn8hSTY8LS2ksEA_XaxK-15" target="nn8hSTY8LS2ksEA_XaxK-56" edge="1">
          <mxGeometry width="50" height="50" relative="1" as="geometry">
            <mxPoint x="600" y="-490" as="sourcePoint" />
            <mxPoint x="420" y="-490" as="targetPoint" />
          </mxGeometry>
        </mxCell>
        <mxCell id="nn8hSTY8LS2ksEA_XaxK-55" value="successfully" style="edgeLabel;html=1;align=center;verticalAlign=middle;resizable=0;points=[];" parent="nn8hSTY8LS2ksEA_XaxK-54" vertex="1" connectable="0">
          <mxGeometry x="0.4229" y="2" relative="1" as="geometry">
            <mxPoint x="38" y="-2" as="offset" />
          </mxGeometry>
        </mxCell>
        <mxCell id="nn8hSTY8LS2ksEA_XaxK-56" value="" style="rounded=0;whiteSpace=wrap;html=1;" parent="1" vertex="1">
          <mxGeometry x="210" y="-536" width="20" height="66" as="geometry" />
        </mxCell>
      </root>
    </mxGraphModel>
  </diagram>
</mxfile>
